' SPDX-FileCopyrightText: Copyright 2023-2024 Arm Limited and/or its affiliates <open-source-office@arm.com>
' SPDX-License-Identifier: CC-BY-SA-4.0 AND LicenseRef-Patent-license

@startuml
!include psa-spec.pumh

skinparam LegendFontSize 12

legend bottom
  --""———""-- Solid lines show successful operation
  <color:darkred>""---""</color> Dashed lines show error flows
  <color:blue>""………""</color> Dotted lines show operation cancellation
end legend

state inactive as "//inactive//"
state active as "//active//"
state error as "<color:darkred>//error//" ##darkred

[*] --> inactive: **Initialize**
note as N1
   Operation object starts as
   uninitialised memory
end note
inactive --> active: **Start**
active --> active: **Complete**\n//incomplete//
active --> inactive: **Complete**\n//success//
error -[#darkred,dashed]r-> inactive: <color:darkred>**Abort**
inactive -[#darkred,dashed]-> inactive: <color:darkred>**Start**\n<color:darkred>//fails//
active -[#darkred,dashed]-> error: <color:darkred>**Complete**\n<color:darkred>//fails//
active -[#blue,dotted]l-> inactive: <color:blue>**Abort**

@enduml
